<?xml version="1.0" standalone="no"?><!DOCTYPE svg PUBLIC "-//W3C//DTD SVG 1.1//EN" "http://www.w3.org/Graphics/SVG/1.1/DTD/svg11.dtd"><svg t="1735461758966" class="icon" viewBox="0 0 1024 1024" version="1.1" xmlns="http://www.w3.org/2000/svg" p-id="5780" xmlns:xlink="http://www.w3.org/1999/xlink" width="200" height="200"><path d="M526.336 105.813L889.515 243.03c6.144 3.414 11.605 8.192 14.336 14.336l101.034 180.224c8.875 16.384 3.414 36.864-12.97 46.422-1.366 0.682-2.731 0.682-4.096 1.365l-79.19 40.277v202.752c0 15.019-9.557 26.624-21.845 31.403L526.336 912.725c-10.24 4.779-21.163 4.096-30.72 0L132.437 758.443c-11.605-5.462-19.114-17.75-19.114-30.038V525.653l-81.92-40.96c-17.067-8.192-23.894-28.672-15.702-45.738l0.683-1.366 101.035-180.224c4.096-6.826 10.24-11.605 16.384-15.018l361.13-136.534c10.923-5.461 21.846-5.461 31.403 0zM490.837 834.22V533.845l-56.661 100.352c-5.461 9.558-17.75 12.971-27.307 7.51h-0.682L181.589 529.749v177.494l309.248 126.976z m0-412.331V184.32l-282.624 96.939 282.624 140.629z m40.278-237.568v237.568l281.941-140.63-281.941-96.938z m0 350.208v300.373L839.68 707.243V529.067l-224.597 112.64h-0.683c-9.557 5.461-22.528 2.048-27.307-7.51l-55.978-99.669z m322.218-228.693L539.307 463.53l73.728 133.12 314.709-157.696-74.41-133.12zM165.888 475.819L408.235 596.65l74.41-133.12-314.709-157.014-74.41 133.12 66.218 32.768c2.048 1.366 4.096 2.048 6.144 3.414z" fill="" p-id="5781"></path></svg>